<svg width="390" height="365" viewBox="0 0 390 365" fill="none" xmlns="http://www.w3.org/2000/svg">
<line x1="326.814" y1="6.43149e-09" x2="326.814" y2="364.896" stroke="white" stroke-opacity="0.15" stroke-width="0.294271"/>
<line x1="138.48" y1="6.43149e-09" x2="138.48" y2="364.896" stroke="white" stroke-opacity="0.15" stroke-width="0.294271"/>
<line x1="44.3139" y1="6.43149e-09" x2="44.3139" y2="364.896" stroke="white" stroke-opacity="0.15" stroke-width="0.294271"/>
<line x1="232.647" y1="6.43149e-09" x2="232.647" y2="364.896" stroke="white" stroke-opacity="0.15" stroke-width="0.294271"/>
<line x1="373.897" y1="6.43149e-09" x2="373.897" y2="364.896" stroke="white" stroke-opacity="0.15" stroke-width="0.294271"/>
<line x1="185.564" y1="6.43149e-09" x2="185.564" y2="364.896" stroke="white" stroke-opacity="0.15" stroke-width="0.294271"/>
<line x1="91.3971" y1="6.43149e-09" x2="91.3971" y2="364.896" stroke="white" stroke-opacity="0.15" stroke-width="0.294271"/>
<line x1="279.73" y1="6.43149e-09" x2="279.73" y2="364.896" stroke="white" stroke-opacity="0.15" stroke-width="0.294271"/>
<line x1="-50" y1="229.384" x2="515" y2="229.384" stroke="white" stroke-opacity="0.15" stroke-width="0.294271"/>
<line x1="-50" y1="41.0507" x2="515" y2="41.0507" stroke="white" stroke-opacity="0.15" stroke-width="0.294271"/>
<line x1="-50" y1="135.217" x2="515" y2="135.217" stroke="white" stroke-opacity="0.15" stroke-width="0.294271"/>
<line x1="-50" y1="182.301" x2="515" y2="182.301" stroke="white" stroke-opacity="0.15" stroke-width="0.294271"/>
<line x1="-50" y1="88.1341" x2="515" y2="88.1341" stroke="white" stroke-opacity="0.15" stroke-width="0.294271"/>
<line x1="-50" y1="276.467" x2="515" y2="276.467" stroke="white" stroke-opacity="0.15" stroke-width="0.294271"/>
<line x1="-50" y1="364.749" x2="515" y2="364.749" stroke="white" stroke-opacity="0.15" stroke-width="0.294271"/>
<line x1="-50" y1="317.665" x2="515" y2="317.665" stroke="white" stroke-opacity="0.15" stroke-width="0.294271"/>
</svg>
