<svg width="1920" height="1240" viewBox="0 0 1920 1240" fill="none" xmlns="http://www.w3.org/2000/svg">
<line x1="0.5" y1="2.18557e-08" x2="0.499946" y2="1240" stroke="#121212" stroke-opacity="0.1"/>
<line x1="1280.5" y1="2.18557e-08" x2="1280.5" y2="1240" stroke="#121212" stroke-opacity="0.1"/>
<line x1="640.5" y1="2.18557e-08" x2="640.5" y2="1240" stroke="#121212" stroke-opacity="0.1"/>
<line x1="320.5" y1="2.18557e-08" x2="320.5" y2="1240" stroke="#121212" stroke-opacity="0.1"/>
<line x1="1600.5" y1="2.18557e-08" x2="1600.5" y2="1240" stroke="#121212" stroke-opacity="0.1"/>
<line x1="960.5" y1="2.18557e-08" x2="960.5" y2="1240" stroke="#121212" stroke-opacity="0.1"/>
<line x1="160.5" y1="2.18557e-08" x2="160.5" y2="1240" stroke="#121212" stroke-opacity="0.1"/>
<line x1="1440.5" y1="2.18557e-08" x2="1440.5" y2="1240" stroke="#121212" stroke-opacity="0.1"/>
<line x1="800.5" y1="2.18557e-08" x2="800.5" y2="1240" stroke="#121212" stroke-opacity="0.1"/>
<line x1="480.5" y1="2.18557e-08" x2="480.5" y2="1240" stroke="#121212" stroke-opacity="0.1"/>
<line x1="1760.5" y1="2.18557e-08" x2="1760.5" y2="1240" stroke="#121212" stroke-opacity="0.1"/>
<line x1="1120.5" y1="2.18557e-08" x2="1120.5" y2="1240" stroke="#121212" stroke-opacity="0.1"/>
<line y1="779.5" x2="1920" y2="779.5" stroke="#121212" stroke-opacity="0.1"/>
<line y1="139.5" x2="1920" y2="139.5" stroke="#121212" stroke-opacity="0.1"/>
<line y1="459.5" x2="1920" y2="459.5" stroke="#121212" stroke-opacity="0.1"/>
<line y1="619.5" x2="1920" y2="619.5" stroke="#121212" stroke-opacity="0.1"/>
<line y1="299.5" x2="1920" y2="299.5" stroke="#121212" stroke-opacity="0.1"/>
<line y1="939.5" x2="1920" y2="939.5" stroke="#121212" stroke-opacity="0.1"/>
<line y1="1239.5" x2="1920" y2="1239.5" stroke="#121212" stroke-opacity="0.1"/>
<line y1="1079.5" x2="1920" y2="1079.5" stroke="#121212" stroke-opacity="0.1"/>
</svg>
