<svg width="108" height="33" viewBox="0 0 108 33" fill="none" xmlns="http://www.w3.org/2000/svg">
<path d="M1 31.8144V1.0575H14.1127V6.86257C14.1127 22.8459 29.2815 21.2205 33.1222 14.6027V30.4699C18.3491 37.0954 14.7593 23.6844 14.1127 16.1507V31.8144H1Z" fill="#121212" stroke="#121212" stroke-width="0.52876"/>
<path d="M33.1221 8.72455C33.1221 13.3951 29.3067 17.1847 24.5959 17.1847C19.8851 17.1847 16.0696 13.3951 16.0696 8.72455C16.0696 4.054 19.8851 0.26438 24.5959 0.26438C29.3067 0.26438 33.1221 4.054 33.1221 8.72455Z" fill="#121212" stroke="#121212" stroke-width="0.52876"/>
<path d="M43.7185 16.2348C42.715 16.2348 41.8258 16.0569 41.051 15.7013C40.2761 15.3456 39.6664 14.8248 39.2218 14.1388C38.7899 13.4402 38.5739 12.5955 38.5739 11.6047V11.1283H40.6127V11.6047C40.6127 12.5447 40.8922 13.2497 41.4511 13.7197C42.0227 14.1896 42.7785 14.4246 43.7185 14.4246C44.6712 14.4246 45.3889 14.2278 45.8716 13.834C46.3543 13.4275 46.5957 12.9067 46.5957 12.2715C46.5957 11.8524 46.4813 11.5094 46.2527 11.2426C46.024 10.9759 45.7001 10.7663 45.2809 10.6139C44.8617 10.4487 44.36 10.2963 43.7757 10.1566L43.0707 9.98507C42.2196 9.78183 41.4765 9.53413 40.8414 9.24197C40.2189 8.93711 39.7362 8.53697 39.3933 8.04157C39.0503 7.54617 38.8788 6.91104 38.8788 6.13617C38.8788 5.34861 39.0693 4.67537 39.4504 4.11645C39.8442 3.55754 40.3841 3.12565 41.07 2.82078C41.7559 2.51592 42.5626 2.36349 43.4899 2.36349C44.4172 2.36349 45.2428 2.52227 45.9669 2.83984C46.7036 3.15741 47.2816 3.6274 47.7008 4.24983C48.12 4.87226 48.3296 5.65347 48.3296 6.59347V7.27941H46.2908V6.59347C46.2908 6.02185 46.1701 5.5582 45.9288 5.20253C45.7001 4.84686 45.3762 4.58645 44.957 4.42132C44.5378 4.25618 44.0488 4.17362 43.4899 4.17362C42.6769 4.17362 42.0418 4.3451 41.5845 4.68807C41.1399 5.01834 40.9176 5.48199 40.9176 6.07901C40.9176 6.4855 41.0128 6.82212 41.2034 7.08887C41.4066 7.34293 41.6988 7.55252 42.0799 7.71765C42.4609 7.88279 42.9373 8.02887 43.5089 8.15589L44.2139 8.32738C45.0777 8.51792 45.8398 8.76562 46.5004 9.07048C47.1609 9.36264 47.6817 9.76278 48.0628 10.2709C48.4439 10.779 48.6344 11.4332 48.6344 12.2334C48.6344 13.0337 48.4312 13.7324 48.0247 14.3294C47.6309 14.9264 47.0657 15.3964 46.3289 15.7394C45.5921 16.0696 44.722 16.2348 43.7185 16.2348ZM53.9957 15.968C53.4241 15.968 52.9668 15.7965 52.6239 15.4536C52.2936 15.1106 52.1284 14.6533 52.1284 14.0817V8.23211H49.5371V6.57442H52.1284V3.46862H54.091V6.57442H56.8919V8.23211H54.091V13.7387C54.091 14.1198 54.2688 14.3103 54.6245 14.3103H56.5871V15.968H53.9957ZM62.4177 16.1395C61.7064 16.1395 61.0713 15.9807 60.5123 15.6632C59.9534 15.3456 59.5152 14.8946 59.1976 14.3103C58.88 13.726 58.7213 13.0274 58.7213 12.2144V6.57442H60.6838V12.081C60.6838 12.894 60.8871 13.4974 61.2936 13.8911C61.7 14.2722 62.2653 14.4628 62.9894 14.4628C63.7896 14.4628 64.4311 14.196 64.9138 13.6625C65.4092 13.1163 65.6569 12.3351 65.6569 11.3189V6.57442H67.6195V15.968H65.695V14.558H65.3902C65.2123 14.9391 64.8947 15.3011 64.4375 15.6441C63.9802 15.9744 63.3069 16.1395 62.4177 16.1395ZM74.0265 16.2348C73.2516 16.2348 72.5339 16.0442 71.8734 15.6632C71.2129 15.2821 70.6794 14.7359 70.2729 14.0245C69.8791 13.3005 69.6822 12.4303 69.6822 11.4141V11.1283C69.6822 10.1248 69.8791 9.26102 70.2729 8.53697C70.6667 7.81292 71.1938 7.26036 71.8544 6.87928C72.5149 6.4982 73.2389 6.30766 74.0265 6.30766C74.6362 6.30766 75.1443 6.38388 75.5508 6.53631C75.97 6.68874 76.313 6.88563 76.5797 7.12698C76.8465 7.35563 77.0497 7.59698 77.1895 7.85103H77.4943V2.63025H79.4569V15.968H77.5324V14.6342H77.2276C76.9862 15.0407 76.6178 15.4091 76.1224 15.7394C75.6397 16.0696 74.9411 16.2348 74.0265 16.2348ZM74.5791 14.5199C75.4301 14.5199 76.1288 14.2468 76.675 13.7006C77.2339 13.1544 77.5134 12.3732 77.5134 11.357V11.1855C77.5134 10.182 77.2403 9.4071 76.6941 8.86089C76.1478 8.31468 75.4429 8.04157 74.5791 8.04157C73.7407 8.04157 73.0421 8.31468 72.4831 8.86089C71.9369 9.4071 71.6638 10.182 71.6638 11.1855V11.357C71.6638 12.3732 71.9369 13.1544 72.4831 13.7006C73.0421 14.2468 73.7407 14.5199 74.5791 14.5199ZM81.9649 15.968V6.57442H83.9274V15.968H81.9649ZM82.9557 5.2978C82.5746 5.2978 82.2507 5.17713 81.9839 4.93577C81.7299 4.68172 81.6028 4.3578 81.6028 3.96402C81.6028 3.57024 81.7299 3.25268 81.9839 3.01133C82.2507 2.75727 82.5746 2.63025 82.9557 2.63025C83.3495 2.63025 83.6734 2.75727 83.9274 3.01133C84.1815 3.25268 84.3085 3.57024 84.3085 3.96402C84.3085 4.3578 84.1815 4.68172 83.9274 4.93577C83.6734 5.17713 83.3495 5.2978 82.9557 5.2978ZM90.8604 16.2348C89.9204 16.2348 89.082 16.0442 88.3453 15.6632C87.6212 15.2694 87.0496 14.7105 86.6304 13.9864C86.2112 13.2624 86.0016 12.4049 86.0016 11.4141V11.1283C86.0016 10.1375 86.2112 9.28643 86.6304 8.57508C87.0496 7.85103 87.6212 7.29211 88.3453 6.89833C89.082 6.50455 89.9204 6.30766 90.8604 6.30766C91.8004 6.30766 92.6388 6.50455 93.3755 6.89833C94.1123 7.29211 94.6902 7.85103 95.1094 8.57508C95.5286 9.28643 95.7382 10.1375 95.7382 11.1283V11.4141C95.7382 12.4049 95.5286 13.2624 95.1094 13.9864C94.6902 14.7105 94.1123 15.2694 93.3755 15.6632C92.6388 16.0442 91.8004 16.2348 90.8604 16.2348ZM90.8604 14.4818C91.7242 14.4818 92.4228 14.2087 92.9563 13.6625C93.5025 13.1036 93.7756 12.3351 93.7756 11.357V11.1855C93.7756 10.2074 93.5089 9.44521 92.9754 8.899C92.4419 8.34008 91.7369 8.06062 90.8604 8.06062C90.0093 8.06062 89.3107 8.34008 88.7644 8.899C88.2309 9.44521 87.9642 10.2074 87.9642 11.1855V11.357C87.9642 12.3351 88.2309 13.1036 88.7644 13.6625C89.3107 14.2087 90.0093 14.4818 90.8604 14.4818ZM39.317 30.968V17.6302H42.4228L47.072 29.9582H47.3197V17.6302H48.9012V30.968H45.7954L41.1653 18.6211H40.8985V30.968H39.317ZM55.9142 31.2348C54.9742 31.2348 54.1486 31.0379 53.4372 30.6441C52.7259 30.2376 52.1733 29.6723 51.7795 28.9483C51.3857 28.2242 51.1888 27.3859 51.1888 26.4332V26.2045C51.1888 25.2391 51.3857 24.3944 51.7795 23.6704C52.1733 22.9463 52.7195 22.3874 53.4182 21.9936C54.1168 21.5871 54.9171 21.3839 55.819 21.3839C56.6954 21.3839 57.4703 21.5744 58.1435 21.9555C58.8168 22.3239 59.3439 22.8574 59.725 23.556C60.1061 24.2547 60.2966 25.074 60.2966 26.014V26.6999H52.6941C52.7322 27.7034 53.0561 28.491 53.6659 29.0626C54.2756 29.6215 55.0377 29.901 55.9523 29.901C56.7526 29.901 57.3687 29.7168 57.8006 29.3484C58.2325 28.9801 58.5627 28.5418 58.7914 28.0337L60.087 28.6625C59.8965 29.0563 59.6298 29.4501 59.2868 29.8438C58.9565 30.2376 58.5183 30.5679 57.9721 30.8346C57.4385 31.1014 56.7526 31.2348 55.9142 31.2348ZM52.7132 25.4614H58.7723C58.7215 24.5976 58.423 23.9244 57.8768 23.4417C57.3433 22.959 56.6573 22.7177 55.819 22.7177C54.9679 22.7177 54.2692 22.959 53.723 23.4417C53.1768 23.9244 52.8402 24.5976 52.7132 25.4614ZM61.1463 30.968L64.8809 26.2426L61.2607 21.6506H63.0708L65.8527 25.2518H66.1194L68.8822 21.6506H70.7114L67.0721 26.2426L70.8067 30.968H68.9775L66.1194 27.2525H65.8527L62.9946 30.968H61.1463ZM75.4569 31.2348C74.8091 31.2348 74.2184 31.1204 73.6849 30.8918C73.1514 30.6632 72.7322 30.3329 72.4273 29.901C72.1225 29.4691 71.97 28.9419 71.97 28.3195C71.97 27.6844 72.1225 27.1636 72.4273 26.7571C72.7322 26.3379 73.1514 26.0267 73.6849 25.8234C74.2184 25.6075 74.8154 25.4995 75.4759 25.4995H78.6199V24.8136C78.6199 24.1531 78.423 23.6322 78.0292 23.2512C77.6481 22.8701 77.0765 22.6795 76.3143 22.6795C75.5649 22.6795 74.9805 22.8637 74.5614 23.2321C74.1422 23.5878 73.8564 24.0705 73.7039 24.6802L72.2939 24.2229C72.4464 23.7021 72.6877 23.2321 73.018 22.8129C73.3483 22.381 73.7865 22.0381 74.3327 21.784C74.8916 21.5173 75.5585 21.3839 76.3334 21.3839C77.5274 21.3839 78.4547 21.6951 79.1153 22.3175C79.7758 22.9272 80.1061 23.791 80.1061 24.9089V29.1198C80.1061 29.5009 80.2839 29.6914 80.6396 29.6914H81.497V30.968H80.1823C79.7631 30.968 79.4265 30.8537 79.1724 30.625C78.9184 30.3837 78.7913 30.0661 78.7913 29.6723V29.5771H78.5627C78.423 29.8184 78.2324 30.0725 77.9911 30.3392C77.7624 30.5933 77.4449 30.8029 77.0384 30.968C76.6319 31.1459 76.1047 31.2348 75.4569 31.2348ZM75.6284 29.9391C76.5176 29.9391 77.2353 29.6787 77.7815 29.1579C78.3404 28.6244 78.6199 27.8813 78.6199 26.9286V26.719H75.5331C74.9361 26.719 74.4407 26.8524 74.0469 27.1191C73.6658 27.3732 73.4753 27.7606 73.4753 28.2814C73.4753 28.8022 73.6722 29.2087 74.066 29.5009C74.4724 29.793 74.9932 29.9391 75.6284 29.9391Z" fill="#121212"/>
<path d="M99.4654 8.38462C98.8459 8.38462 98.2883 8.25039 97.7927 7.98193C97.3074 7.70315 96.9202 7.32111 96.6311 6.83583C96.3523 6.35054 96.2129 5.79298 96.2129 5.16314C96.2129 4.5333 96.3523 3.97573 96.6311 3.49045C96.9202 3.00516 97.3074 2.62829 97.7927 2.35983C98.2883 2.08105 98.8459 1.94166 99.4654 1.94166C100.085 1.94166 100.637 2.08105 101.123 2.35983C101.618 2.62829 102.005 3.00516 102.284 3.49045C102.573 3.97573 102.718 4.5333 102.718 5.16314C102.718 5.79298 102.573 6.35054 102.284 6.83583C102.005 7.32111 101.618 7.70315 101.123 7.98193C100.637 8.25039 100.085 8.38462 99.4654 8.38462ZM99.4654 7.78059C100.25 7.78059 100.88 7.54311 101.355 7.06815C101.84 6.58286 102.083 5.94786 102.083 5.16314C102.083 4.37842 101.84 3.74858 101.355 3.27362C100.88 2.78833 100.25 2.54569 99.4654 2.54569C98.6807 2.54569 98.0457 2.78833 97.5604 3.27362C97.0854 3.74858 96.8479 4.37842 96.8479 5.16314C96.8479 5.94786 97.0854 6.58286 97.5604 7.06815C98.0457 7.54311 98.6807 7.78059 99.4654 7.78059ZM98.3503 6.85132V3.41301H99.6667C100.049 3.41301 100.338 3.5111 100.534 3.70728C100.73 3.89313 100.828 4.10996 100.828 4.35777C100.828 4.56427 100.777 4.7398 100.673 4.88436C100.581 5.02891 100.426 5.14249 100.209 5.22509V5.34899C100.384 5.35932 100.508 5.41611 100.581 5.51936C100.663 5.62261 100.704 5.74651 100.704 5.89107V6.85132H100.1V5.90656C100.1 5.68973 99.992 5.58131 99.7751 5.58131H98.9543V6.85132H98.3503ZM98.9543 5.02375H99.6822C99.8577 5.02375 99.992 4.97212 100.085 4.86887C100.178 4.75529 100.224 4.62623 100.224 4.48167C100.224 4.33712 100.178 4.21322 100.085 4.10996C99.992 4.00671 99.8577 3.95508 99.6822 3.95508H98.9543V5.02375Z" fill="#121212"/>
</svg>
