<svg width="16" height="15" viewBox="0 0 16 15" fill="none" xmlns="http://www.w3.org/2000/svg">
<path d="M14.8294 8.02296C14.7263 7.93893 14.6014 7.88514 14.4688 7.8677C14.3362 7.85027 14.2013 7.8699 14.0795 7.92436C13.3243 8.26514 12.5032 8.44054 11.6727 8.43847C10.1364 8.43664 8.66316 7.83594 7.57415 6.76733C6.48514 5.69872 5.86873 4.24889 5.8593 2.73394C5.86256 2.25915 5.92249 1.78639 6.03785 1.32542C6.06233 1.20255 6.05315 1.07547 6.01125 0.957268C5.96935 0.839065 5.89625 0.734015 5.79949 0.65294C5.70272 0.571865 5.58578 0.517698 5.46072 0.496018C5.33566 0.474339 5.20699 0.485931 5.08799 0.529601C3.96838 1.02604 2.99513 1.79499 2.25966 2.76422C1.52419 3.73344 1.05064 4.87112 0.883495 6.07038C0.716355 7.26964 0.86111 8.49112 1.30416 9.62006C1.74722 10.749 2.47402 11.7484 3.4163 12.5242C4.35859 13.3001 5.48541 13.827 6.69093 14.0555C7.89644 14.284 9.14108 14.2066 10.3079 13.8305C11.4747 13.4544 12.5254 12.7919 13.3613 11.9054C14.1972 11.0189 14.7909 9.93734 15.0865 8.76243C15.1225 8.62792 15.1173 8.48589 15.0716 8.35429C15.0258 8.22268 14.9416 8.10739 14.8294 8.02296ZM8.0447 12.7345C6.84613 12.7261 5.67947 12.3527 4.70447 11.6652C3.72946 10.9778 2.99377 10.0099 2.59813 8.89422C2.20248 7.77852 2.16623 6.56949 2.49432 5.43268C2.82242 4.29587 3.49883 3.28686 4.43094 2.54379V2.73394C4.43283 4.62734 5.19641 6.44266 6.5541 7.78149C7.91179 9.12033 9.75267 9.87331 11.6727 9.87517C12.1769 9.87699 12.6797 9.82505 13.1725 9.72023C12.6797 10.6397 11.9416 11.4089 11.0379 11.9451C10.1343 12.4813 9.09932 12.7639 8.0447 12.7626V12.7345Z" fill="#121212"/>
</svg>
