<svg width="13" height="13" viewBox="0 0 13 13" fill="none" xmlns="http://www.w3.org/2000/svg">
<path d="M11.4646 7.19077C11.3292 7.19077 11.1876 7.14757 11.0523 7.11671C10.7781 7.05613 10.5087 6.97569 10.2462 6.87603C9.9607 6.77187 9.64692 6.77728 9.36519 6.89121C9.08346 7.00515 8.8537 7.21955 8.72012 7.49317L8.58474 7.77088C7.9854 7.4365 7.43465 7.0212 6.94793 6.5366C6.46474 6.04846 6.05064 5.49611 5.71724 4.89502L5.97568 4.72222C6.2485 4.58825 6.46228 4.35782 6.57588 4.07527C6.68948 3.79272 6.69488 3.47802 6.59103 3.19172C6.49332 2.92785 6.41315 2.65778 6.35104 2.38328C6.32027 2.24751 6.29566 2.10556 6.2772 1.96362C6.20248 1.52892 5.97545 1.13527 5.63701 0.853543C5.29857 0.571818 4.87095 0.420541 4.43117 0.426954H2.58514C2.31994 0.424456 2.05732 0.479295 1.81516 0.587736C1.573 0.696178 1.35698 0.855676 1.1818 1.05537C1.00663 1.25507 0.876408 1.49028 0.800015 1.74498C0.723623 1.99969 0.702847 2.26791 0.739104 2.53139C1.06692 5.11681 2.24425 7.51901 4.08513 9.35854C5.92601 11.1981 8.3255 12.3701 10.9046 12.6895H11.1384C11.5922 12.6901 12.0303 12.5232 12.3691 12.2204C12.5638 12.0458 12.7193 11.8317 12.8254 11.5924C12.9314 11.353 12.9857 11.0938 12.9845 10.8319V8.98046C12.9769 8.55179 12.8213 8.13903 12.5441 7.81264C12.2669 7.48624 11.8853 7.26645 11.4646 7.19077ZM11.7722 10.8936C11.7721 10.9812 11.7534 11.0678 11.7173 11.1476C11.6812 11.2274 11.6286 11.2986 11.563 11.3564C11.4942 11.416 11.4138 11.4605 11.327 11.487C11.2401 11.5136 11.1486 11.5217 11.0584 11.5107C8.7539 11.2144 6.61332 10.157 4.97434 8.50545C3.33536 6.85387 2.29125 4.70207 2.00671 2.38945C1.99692 2.29905 2.0055 2.2076 2.03194 2.12062C2.05838 2.03364 2.10213 1.95294 2.16055 1.8834C2.21821 1.81757 2.28919 1.76481 2.36877 1.72863C2.44834 1.69245 2.53469 1.67368 2.62206 1.67357H4.46809C4.61118 1.67038 4.75092 1.71731 4.86323 1.8063C4.97554 1.89528 5.05341 2.02075 5.08343 2.16111C5.10805 2.32979 5.13881 2.49642 5.17573 2.66099C5.24682 2.98631 5.34142 3.30601 5.45879 3.61755L4.59731 4.01869C4.52365 4.05258 4.4574 4.10073 4.40234 4.16038C4.34729 4.22003 4.30453 4.28999 4.27651 4.36626C4.2485 4.44252 4.23578 4.52359 4.23909 4.6048C4.2424 4.686 4.26167 4.76576 4.29579 4.83948C5.1814 6.74196 6.70625 8.27125 8.6032 9.15943C8.75301 9.22116 8.92105 9.22116 9.07086 9.15943C9.1476 9.13191 9.21813 9.08936 9.27834 9.03427C9.33855 8.97918 9.38725 8.91264 9.42161 8.83852L9.80312 7.97453C10.1212 8.08863 10.4459 8.18343 10.7754 8.25841C10.9395 8.29544 11.1056 8.3263 11.2738 8.35099C11.4137 8.3811 11.5388 8.45919 11.6276 8.57183C11.7163 8.68447 11.7631 8.82461 11.7599 8.96812L11.7722 10.8936Z" fill="white"/>
</svg>
