<svg width="789" height="327" viewBox="0 0 789 327" fill="none" xmlns="http://www.w3.org/2000/svg">
<path d="M256.642 181V35.5455H314.028C325.013 35.5455 334.388 37.5104 342.153 41.4403C349.966 45.3229 355.908 50.839 359.98 57.9886C364.099 65.0909 366.159 73.4479 366.159 83.0597C366.159 92.7187 364.076 101.028 359.909 107.989C355.742 114.902 349.705 120.205 341.798 123.898C333.938 127.591 324.421 129.438 313.247 129.438H274.824V104.722H308.276C314.147 104.722 319.024 103.917 322.906 102.307C326.789 100.697 329.677 98.2822 331.571 95.0625C333.512 91.8428 334.483 87.8419 334.483 83.0597C334.483 78.2301 333.512 74.1581 331.571 70.8438C329.677 67.5294 326.765 65.0199 322.835 63.3153C318.953 61.5634 314.052 60.6875 308.134 60.6875H287.395V181H256.642ZM335.193 114.807L371.344 181H337.395L302.026 114.807H335.193ZM389.892 181V35.5455H487.903V60.9006H420.645V95.5597H482.861V120.915H420.645V155.645H488.188V181H389.892ZM540.631 35.5455L575.788 146.057H577.137L612.364 35.5455H646.455L596.313 181H556.683L506.469 35.5455H540.631ZM671.697 181H638.743L688.956 35.5455H728.587L778.729 181H745.774L709.339 68.7841H708.203L671.697 181ZM669.638 123.827H747.479V147.832H669.638V123.827Z" fill="white"/>
<path d="M325 230.772C324.515 226.469 322.515 223.135 319 220.772C315.485 218.378 311.061 217.181 305.727 217.181C301.909 217.181 298.606 217.787 295.818 218.999C293.03 220.181 290.864 221.817 289.318 223.908C287.803 225.969 287.045 228.317 287.045 230.953C287.045 233.165 287.561 235.075 288.591 236.681C289.652 238.287 291.03 239.635 292.727 240.726C294.455 241.787 296.303 242.681 298.273 243.408C300.242 244.105 302.136 244.681 303.955 245.135L313.045 247.499C316.015 248.226 319.061 249.211 322.182 250.453C325.303 251.696 328.197 253.332 330.864 255.362C333.53 257.393 335.682 259.908 337.318 262.908C338.985 265.908 339.818 269.499 339.818 273.681C339.818 278.953 338.455 283.635 335.727 287.726C333.03 291.817 329.106 295.044 323.955 297.408C318.833 299.772 312.636 300.953 305.364 300.953C298.394 300.953 292.364 299.847 287.273 297.635C282.182 295.423 278.197 292.287 275.318 288.226C272.439 284.135 270.848 279.287 270.545 273.681H284.636C284.909 277.044 286 279.847 287.909 282.09C289.848 284.302 292.318 285.953 295.318 287.044C298.348 288.105 301.667 288.635 305.273 288.635C309.242 288.635 312.773 288.014 315.864 286.772C318.985 285.499 321.439 283.741 323.227 281.499C325.015 279.226 325.909 276.575 325.909 273.544C325.909 270.787 325.121 268.529 323.545 266.772C322 265.014 319.894 263.559 317.227 262.408C314.591 261.256 311.606 260.241 308.273 259.362L297.273 256.362C289.818 254.332 283.909 251.347 279.545 247.408C275.212 243.469 273.045 238.256 273.045 231.772C273.045 226.408 274.5 221.726 277.409 217.726C280.318 213.726 284.258 210.62 289.227 208.408C294.197 206.165 299.803 205.044 306.045 205.044C312.348 205.044 317.909 206.15 322.727 208.362C327.576 210.575 331.394 213.62 334.182 217.499C336.97 221.347 338.424 225.772 338.545 230.772H325ZM359.691 218.408V206.317H431.737V218.408H402.691V299.408H388.691V218.408H359.691ZM515.201 206.317H529.292V267.544C529.292 274.059 527.762 279.832 524.701 284.862C521.64 289.862 517.337 293.802 511.792 296.681C506.246 299.529 499.746 300.953 492.292 300.953C484.868 300.953 478.383 299.529 472.837 296.681C467.292 293.802 462.989 289.862 459.928 284.862C456.868 279.832 455.337 274.059 455.337 267.544V206.317H469.383V266.408C469.383 270.62 470.307 274.362 472.155 277.635C474.034 280.908 476.686 283.484 480.11 285.362C483.534 287.211 487.595 288.135 492.292 288.135C497.019 288.135 501.095 287.211 504.519 285.362C507.974 283.484 510.61 280.908 512.428 277.635C514.277 274.362 515.201 270.62 515.201 266.408V206.317ZM587.529 299.408H557.392V206.317H588.483C597.604 206.317 605.438 208.181 611.983 211.908C618.529 215.605 623.544 220.923 627.029 227.862C630.544 234.772 632.301 243.059 632.301 252.726C632.301 262.423 630.529 270.756 626.983 277.726C623.468 284.696 618.377 290.059 611.71 293.817C605.044 297.544 596.983 299.408 587.529 299.408ZM571.438 287.135H586.756C593.847 287.135 599.741 285.802 604.438 283.135C609.135 280.438 612.65 276.544 614.983 271.453C617.317 266.332 618.483 260.09 618.483 252.726C618.483 245.423 617.317 239.226 614.983 234.135C612.68 229.044 609.241 225.181 604.665 222.544C600.089 219.908 594.407 218.59 587.62 218.59H571.438V287.135ZM671.493 206.317V299.408H657.447V206.317H671.493ZM780.491 252.862C780.491 262.802 778.673 271.347 775.036 278.499C771.4 285.62 766.415 291.105 760.082 294.953C753.779 298.772 746.612 300.681 738.582 300.681C730.521 300.681 723.324 298.772 716.991 294.953C710.688 291.105 705.718 285.605 702.082 278.453C698.445 271.302 696.627 262.772 696.627 252.862C696.627 242.923 698.445 234.393 702.082 227.272C705.718 220.12 710.688 214.635 716.991 210.817C723.324 206.969 730.521 205.044 738.582 205.044C746.612 205.044 753.779 206.969 760.082 210.817C766.415 214.635 771.4 220.12 775.036 227.272C778.673 234.393 780.491 242.923 780.491 252.862ZM766.582 252.862C766.582 245.287 765.355 238.908 762.9 233.726C760.476 228.514 757.142 224.575 752.9 221.908C748.688 219.211 743.915 217.862 738.582 217.862C733.218 217.862 728.43 219.211 724.218 221.908C720.006 224.575 716.673 228.514 714.218 233.726C711.794 238.908 710.582 245.287 710.582 252.862C710.582 260.438 711.794 266.832 714.218 272.044C716.673 277.226 720.006 281.165 724.218 283.862C728.43 286.529 733.218 287.862 738.582 287.862C743.915 287.862 748.688 286.529 752.9 283.862C757.142 281.165 760.476 277.226 762.9 272.044C765.355 266.832 766.582 260.438 766.582 252.862Z" fill="white"/>
<path d="M153.731 144.873C154.437 104.858 83.0976 62.0886 83.0976 62.0886V0C83.0976 0 216.179 75.948 211.899 149.013C208.533 206.476 120.492 252.494 120.492 252.494L0 322.861V260.772L95.5623 206.962C95.5623 206.962 153.102 180.467 153.731 144.873Z" fill="white"/>
<path d="M58.1683 0L0 28.9747V235.937L83.0976 182.127C83.0976 182.127 70.633 177.987 62.3232 165.57C54.0135 153.152 58.1683 0 58.1683 0Z" fill="white"/>
<path d="M211.899 293.886V235.937L126.724 281.468L41.5488 327H153.731L211.899 293.886Z" fill="white"/>
</svg>
