<svg width="278" height="429" viewBox="0 0 278 429" fill="none" xmlns="http://www.w3.org/2000/svg">
<path d="M201.59 190.063C202.517 137.565 108.968 81.4557 108.968 81.4557V0C108.968 0 283.48 99.6382 277.867 195.494C273.453 270.881 158.003 331.253 158.003 331.253L0 423.57V342.114L125.313 271.519C125.313 271.519 200.766 236.76 201.59 190.063Z" fill="#F43239"/>
<path d="M76.2773 0L0 38.0127V309.532L108.968 238.937C108.968 238.937 92.6225 233.506 81.7257 217.215C70.829 200.924 76.2773 0 76.2773 0Z" fill="#F43239"/>
<path d="M277.867 385.557V309.532L166.176 369.266L54.4838 429H201.59L277.867 385.557Z" fill="#F43239"/>
</svg>
