<svg width="173" height="267" viewBox="0 0 173 267" fill="none" xmlns="http://www.w3.org/2000/svg">
<path d="M4.04545 238V191.455H22.4091C25.9242 191.455 28.9242 192.083 31.4091 193.341C33.9091 194.583 35.8106 196.348 37.1136 198.636C38.4318 200.909 39.0909 203.583 39.0909 206.659C39.0909 209.75 38.4242 212.409 37.0909 214.636C35.7576 216.848 33.8258 218.545 31.2955 219.727C28.7803 220.909 25.7348 221.5 22.1591 221.5H9.86364V213.591H20.5682C22.447 213.591 24.0076 213.333 25.25 212.818C26.4924 212.303 27.4167 211.53 28.0227 210.5C28.6439 209.47 28.9545 208.189 28.9545 206.659C28.9545 205.114 28.6439 203.811 28.0227 202.75C27.4167 201.689 26.4848 200.886 25.2273 200.341C23.9848 199.78 22.4167 199.5 20.5227 199.5H13.8864V238H4.04545ZM29.1818 216.818L40.75 238H29.8864L18.5682 216.818H29.1818ZM46.6855 238V191.455H78.0491V199.568H56.5264V210.659H76.4355V218.773H56.5264V229.886H78.14V238H46.6855ZM94.922 191.455L106.172 226.818H106.604L117.877 191.455H128.786L112.74 238H100.058L83.9902 191.455H94.922ZM136.863 238H126.318L142.386 191.455H155.068L171.113 238H160.568L148.909 202.091H148.545L136.863 238ZM136.204 219.705H161.113V227.386H136.204V219.705Z" fill="black"/>
<path d="M45.2074 248.344C45.1278 247.599 44.7926 247.02 44.2017 246.605C43.6165 246.19 42.8551 245.983 41.9176 245.983C41.2585 245.983 40.6932 246.082 40.2216 246.281C39.75 246.48 39.3892 246.75 39.1392 247.091C38.8892 247.432 38.7614 247.821 38.7557 248.259C38.7557 248.622 38.8381 248.937 39.0028 249.205C39.1733 249.472 39.4034 249.699 39.6932 249.886C39.983 250.068 40.304 250.222 40.6562 250.347C41.0085 250.472 41.3636 250.577 41.7216 250.662L43.358 251.071C44.017 251.224 44.6506 251.432 45.2585 251.693C45.8722 251.955 46.4205 252.284 46.9034 252.682C47.392 253.08 47.7784 253.56 48.0625 254.122C48.3466 254.685 48.4886 255.344 48.4886 256.099C48.4886 257.122 48.2273 258.023 47.7045 258.801C47.1818 259.574 46.4261 260.179 45.4375 260.616C44.4545 261.048 43.2642 261.264 41.8665 261.264C40.5085 261.264 39.3295 261.054 38.3295 260.634C37.3352 260.213 36.5568 259.599 35.9943 258.793C35.4375 257.986 35.1364 257.003 35.0909 255.844H38.2017C38.2472 256.452 38.4347 256.957 38.7642 257.361C39.0938 257.764 39.5227 258.065 40.0511 258.264C40.5852 258.463 41.1818 258.562 41.8409 258.562C42.5284 258.562 43.1307 258.46 43.6477 258.256C44.1705 258.045 44.5795 257.756 44.875 257.386C45.1705 257.011 45.321 256.574 45.3267 256.074C45.321 255.619 45.1875 255.244 44.9261 254.949C44.6648 254.648 44.2983 254.398 43.8267 254.199C43.3608 253.994 42.8153 253.812 42.1903 253.653L40.2045 253.142C38.767 252.773 37.6307 252.213 36.7955 251.463C35.9659 250.707 35.5511 249.705 35.5511 248.455C35.5511 247.426 35.8295 246.526 36.3864 245.753C36.9489 244.98 37.7131 244.381 38.679 243.955C39.6449 243.523 40.7386 243.307 41.9602 243.307C43.1989 243.307 44.2841 243.523 45.2159 243.955C46.1534 244.381 46.8892 244.974 47.4233 245.736C47.9574 246.491 48.233 247.361 48.25 248.344H45.2074ZM52.9405 246.196V243.545H66.8666V246.196H61.4717V261H58.3354V246.196H52.9405ZM82.9541 243.545H86.1161V254.949C86.1161 256.199 85.8206 257.298 85.2297 258.247C84.6445 259.196 83.8206 259.937 82.7581 260.472C81.6956 261 80.4541 261.264 79.0337 261.264C77.6075 261.264 76.3632 261 75.3007 260.472C74.2382 259.937 73.4143 259.196 72.8291 258.247C72.2439 257.298 71.9513 256.199 71.9513 254.949V243.545H75.1132V254.685C75.1132 255.412 75.2723 256.06 75.5905 256.628C75.9143 257.196 76.3689 257.642 76.9541 257.966C77.5393 258.284 78.2325 258.443 79.0337 258.443C79.8348 258.443 80.528 258.284 81.1132 257.966C81.7041 257.642 82.1587 257.196 82.4768 256.628C82.795 256.06 82.9541 255.412 82.9541 254.685V243.545ZM97.8676 261H91.9528V243.545H97.9869C99.7199 243.545 101.209 243.895 102.453 244.594C103.703 245.287 104.663 246.284 105.334 247.585C106.004 248.886 106.339 250.443 106.339 252.256C106.339 254.074 106.001 255.636 105.325 256.943C104.655 258.25 103.686 259.253 102.419 259.952C101.157 260.651 99.6403 261 97.8676 261ZM95.1148 258.264H97.7142C98.9301 258.264 99.9443 258.043 100.757 257.599C101.569 257.151 102.18 256.483 102.589 255.597C102.998 254.705 103.203 253.591 103.203 252.256C103.203 250.92 102.998 249.812 102.589 248.932C102.18 248.045 101.575 247.384 100.774 246.946C99.9784 246.503 98.9898 246.281 97.808 246.281H95.1148V258.264ZM114.905 243.545V261H111.743V243.545H114.905ZM136.326 252.273C136.326 254.153 135.974 255.764 135.269 257.105C134.57 258.44 133.616 259.463 132.406 260.173C131.201 260.884 129.835 261.239 128.306 261.239C126.778 261.239 125.408 260.884 124.198 260.173C122.994 259.457 122.039 258.432 121.335 257.097C120.636 255.756 120.286 254.148 120.286 252.273C120.286 250.392 120.636 248.784 121.335 247.449C122.039 246.108 122.994 245.082 124.198 244.372C125.408 243.662 126.778 243.307 128.306 243.307C129.835 243.307 131.201 243.662 132.406 244.372C133.616 245.082 134.57 246.108 135.269 247.449C135.974 248.784 136.326 250.392 136.326 252.273ZM133.147 252.273C133.147 250.949 132.94 249.832 132.525 248.923C132.116 248.009 131.548 247.318 130.82 246.852C130.093 246.381 129.255 246.145 128.306 246.145C127.357 246.145 126.519 246.381 125.792 246.852C125.065 247.318 124.494 248.009 124.079 248.923C123.67 249.832 123.465 250.949 123.465 252.273C123.465 253.597 123.67 254.716 124.079 255.631C124.494 256.54 125.065 257.23 125.792 257.702C126.519 258.168 127.357 258.401 128.306 258.401C129.255 258.401 130.093 258.168 130.82 257.702C131.548 257.23 132.116 256.54 132.525 255.631C132.94 254.716 133.147 253.597 133.147 252.273Z" fill="black"/>
<path d="M114.666 77.9747C119.471 56.9763 76.6846 33.4177 76.6846 33.4177V0C76.6846 0 146.802 38.6494 144.5 77.9747C142.69 108.903 100 132.5 100 132.5L32 173.772V140.354L83 110.5C83 110.5 111 94 114.666 77.9747Z" fill="#F43239"/>
<path d="M63.2792 0L32 18.5V124L76.6846 98.0253C76.6846 98.0253 69.9819 95.7975 65.5134 89.1139C61.045 82.4304 63.2792 0 63.2792 0Z" fill="#F43239"/>
<path d="M145.946 155V122.5C145.946 122.5 120.964 136.713 104.5 146.5L54.3423 176H109.5L145.946 155Z" fill="#F43239"/>
</svg>
