<svg width="18" height="18" viewBox="0 0 18 18" fill="none" xmlns="http://www.w3.org/2000/svg">
<path d="M2.78295 9.03685C2.78295 8.79991 2.68882 8.57268 2.52128 8.40513C2.35374 8.23759 2.1265 8.14347 1.88956 8.14347H0.996181C0.759241 8.14347 0.532006 8.23759 0.364464 8.40513C0.196922 8.57268 0.102798 8.79991 0.102798 9.03685C0.102798 9.27379 0.196922 9.50103 0.364464 9.66857C0.532006 9.83611 0.759241 9.93023 0.996181 9.93023H1.88956C2.1265 9.93023 2.35374 9.83611 2.52128 9.66857C2.68882 9.50103 2.78295 9.27379 2.78295 9.03685ZM3.35471 13.5038L2.72041 14.1381C2.55402 14.3054 2.46062 14.5319 2.46062 14.7679C2.46062 15.0039 2.55402 15.2303 2.72041 15.3977C2.88779 15.5641 3.11422 15.6575 3.35024 15.6575C3.58626 15.6575 3.81269 15.5641 3.98008 15.3977L4.61438 14.7634C4.76074 14.5925 4.83722 14.3727 4.82853 14.1478C4.81985 13.923 4.72664 13.7097 4.56753 13.5506C4.40843 13.3915 4.19514 13.2983 3.9703 13.2896C3.74546 13.2809 3.52562 13.3574 3.35471 13.5038ZM9.03662 2.78317C9.27356 2.78317 9.5008 2.68905 9.66834 2.52151C9.83588 2.35397 9.93 2.12673 9.93 1.88979V0.99641C9.93 0.75947 9.83588 0.532235 9.66834 0.364693C9.5008 0.197151 9.27356 0.103027 9.03662 0.103027C8.79968 0.103027 8.57245 0.197151 8.40491 0.364693C8.23736 0.532235 8.14324 0.75947 8.14324 0.99641V1.88979C8.14324 2.12673 8.23736 2.35397 8.40491 2.52151C8.57245 2.68905 8.79968 2.78317 9.03662 2.78317ZM14.0932 4.87369C14.3275 4.8727 14.5521 4.77966 14.7185 4.61461L15.3528 3.98031C15.4464 3.90022 15.5223 3.80166 15.5759 3.69082C15.6296 3.57999 15.6597 3.45926 15.6644 3.33623C15.6692 3.21319 15.6485 3.0905 15.6036 2.97586C15.5586 2.86121 15.4905 2.75709 15.4034 2.67003C15.3164 2.58296 15.2123 2.51484 15.0976 2.46992C14.983 2.42501 14.8603 2.40427 14.7372 2.40903C14.6142 2.41378 14.4935 2.44391 14.3826 2.49754C14.2718 2.55116 14.1733 2.62712 14.0932 2.72064L13.5035 3.35494C13.3371 3.52233 13.2437 3.74875 13.2437 3.98477C13.2437 4.22079 13.3371 4.44722 13.5035 4.61461C13.661 4.77127 13.8712 4.86364 14.0932 4.87369ZM3.37258 4.61461C3.53898 4.77966 3.76358 4.8727 3.99795 4.87369C4.11552 4.87437 4.23207 4.85183 4.34092 4.80737C4.44977 4.76292 4.54877 4.69741 4.63225 4.61461C4.79864 4.44722 4.89204 4.22079 4.89204 3.98477C4.89204 3.74875 4.79864 3.52233 4.63225 3.35494L3.99795 2.72064C3.91523 2.63675 3.81681 2.56998 3.70829 2.52413C3.59978 2.47829 3.48329 2.45426 3.36549 2.45343C3.24769 2.45261 3.13088 2.47499 3.02173 2.5193C2.91258 2.56361 2.81323 2.62899 2.72934 2.7117C2.64546 2.79441 2.57869 2.89284 2.53284 3.00135C2.48699 3.10987 2.46297 3.22635 2.46214 3.34415C2.46046 3.58206 2.55337 3.8109 2.72041 3.98031L3.37258 4.61461ZM17.0771 8.14347H16.1837C15.9467 8.14347 15.7195 8.23759 15.552 8.40513C15.3844 8.57268 15.2903 8.79991 15.2903 9.03685C15.2903 9.27379 15.3844 9.50103 15.552 9.66857C15.7195 9.83611 15.9467 9.93023 16.1837 9.93023H17.0771C17.314 9.93023 17.5412 9.83611 17.7088 9.66857C17.8763 9.50103 17.9704 9.27379 17.9704 9.03685C17.9704 8.79991 17.8763 8.57268 17.7088 8.40513C17.5412 8.23759 17.314 8.14347 17.0771 8.14347ZM14.7185 13.5038C14.5488 13.4094 14.3529 13.3728 14.1606 13.3997C13.9682 13.4266 13.7899 13.5154 13.6525 13.6528C13.5152 13.7901 13.4264 13.9685 13.3995 14.1608C13.3726 14.3532 13.4091 14.549 13.5035 14.7188L14.1378 15.3531C14.3052 15.5195 14.5317 15.6129 14.7677 15.6129C15.0037 15.6129 15.2301 15.5195 15.3975 15.3531C15.5639 15.1857 15.6573 14.9592 15.6573 14.7232C15.6573 14.4872 15.5639 14.2608 15.3975 14.0934L14.7185 13.5038ZM9.03662 4.12325C8.0648 4.12325 7.11481 4.41143 6.30677 4.95134C5.49873 5.49125 4.86894 6.25865 4.49704 7.1565C4.12515 8.05434 4.02784 9.0423 4.21743 9.99545C4.40703 10.9486 4.875 11.8241 5.56218 12.5113C6.24936 13.1985 7.12488 13.6664 8.07803 13.856C9.03117 14.0456 10.0191 13.9483 10.917 13.5764C11.8148 13.2045 12.5822 12.5747 13.1221 11.7667C13.662 10.9587 13.9502 10.0087 13.9502 9.03685C13.9479 7.73441 13.4294 6.48599 12.5085 5.56502C11.5875 4.64405 10.3391 4.12561 9.03662 4.12325ZM9.03662 12.1637C8.41819 12.1637 7.81365 11.9803 7.29944 11.6367C6.78524 11.2931 6.38446 10.8048 6.1478 10.2334C5.91114 9.66208 5.84922 9.03338 5.96986 8.42683C6.09051 7.82029 6.38832 7.26314 6.82561 6.82584C7.26291 6.38855 7.82006 6.09074 8.42661 5.97009C9.03315 5.84944 9.66186 5.91137 10.2332 6.14803C10.8046 6.38469 11.2929 6.78547 11.6365 7.29967C11.9801 7.81388 12.1635 8.41842 12.1635 9.03685C12.1635 9.86614 11.834 10.6615 11.2476 11.2479C10.6612 11.8343 9.86591 12.1637 9.03662 12.1637ZM9.03662 15.2905C8.79968 15.2905 8.57245 15.3847 8.40491 15.5522C8.23736 15.7197 8.14324 15.947 8.14324 16.1839V17.0773C8.14324 17.3142 8.23736 17.5415 8.40491 17.709C8.57245 17.8766 8.79968 17.9707 9.03662 17.9707C9.27356 17.9707 9.5008 17.8766 9.66834 17.709C9.83588 17.5415 9.93 17.3142 9.93 17.0773V16.1839C9.93 15.947 9.83588 15.7197 9.66834 15.5522C9.5008 15.3847 9.27356 15.2905 9.03662 15.2905Z" fill="white"/>
</svg>
