<svg width="18" height="18" viewBox="0 0 18 18" fill="none" xmlns="http://www.w3.org/2000/svg">
<path d="M13.5127 3.75391C13.3119 3.75391 13.1156 3.81345 12.9486 3.925C12.7817 4.03655 12.6516 4.1951 12.5747 4.38061C12.4979 4.56611 12.4778 4.77023 12.517 4.96716C12.5561 5.16409 12.6528 5.34498 12.7948 5.48696C12.9368 5.62894 13.1177 5.72562 13.3146 5.7648C13.5115 5.80397 13.7156 5.78386 13.9012 5.70703C14.0867 5.63019 14.2452 5.50007 14.3568 5.33312C14.4683 5.16617 14.5279 4.96989 14.5279 4.7691C14.5279 4.49986 14.4209 4.24164 14.2305 4.05125C14.0401 3.86086 13.7819 3.75391 13.5127 3.75391ZM17.4042 5.80122C17.3878 5.0993 17.2563 4.40482 17.0151 3.74545C16.8 3.18128 16.4652 2.67042 16.0337 2.24803C15.6148 1.81439 15.1028 1.4817 14.5363 1.27513C13.8787 1.02654 13.1834 0.892071 12.4805 0.877512C11.5838 0.826752 11.2961 0.826752 8.99502 0.826752C6.6939 0.826752 6.40626 0.826752 5.50951 0.877512C4.80661 0.892071 4.11136 1.02654 3.45373 1.27513C2.88833 1.4838 2.37672 1.8162 1.95631 2.24803C1.52267 2.66695 1.18999 3.179 0.983413 3.74545C0.734826 4.40308 0.600354 5.09833 0.585794 5.80122C0.535034 6.69798 0.535034 6.98562 0.535034 9.28674C0.535034 11.5879 0.535034 11.8755 0.585794 12.7723C0.600354 13.4751 0.734826 14.1704 0.983413 14.828C1.18999 15.3945 1.52267 15.9065 1.95631 16.3254C2.37672 16.7573 2.88833 17.0897 3.45373 17.2983C4.11136 17.5469 4.80661 17.6814 5.50951 17.696C6.40626 17.7467 6.6939 17.7467 8.99502 17.7467C11.2961 17.7467 11.5838 17.7467 12.4805 17.696C13.1834 17.6814 13.8787 17.5469 14.5363 17.2983C15.1028 17.0918 15.6148 16.7591 16.0337 16.3254C16.4671 15.9046 16.8022 15.3933 17.0151 14.828C17.2563 14.1687 17.3878 13.4742 17.4042 12.7723C17.4042 11.8755 17.455 11.5879 17.455 9.28674C17.455 6.98562 17.455 6.69798 17.4042 5.80122ZM15.8814 12.6707C15.8753 13.2077 15.778 13.7398 15.5938 14.2443C15.4587 14.6125 15.2418 14.9451 14.9593 15.2172C14.6849 15.4968 14.3529 15.7133 13.9864 15.8517C13.4819 16.0359 12.9499 16.1332 12.4129 16.1393C11.5669 16.1816 11.2538 16.1901 9.02886 16.1901C6.80388 16.1901 6.49086 16.1901 5.64487 16.1393C5.08726 16.1498 4.53203 16.0639 4.00363 15.8855C3.6532 15.7401 3.33644 15.5241 3.07303 15.251C2.79223 14.9792 2.57799 14.6463 2.44699 14.2781C2.24045 13.7664 2.12589 13.2223 2.10859 12.6707C2.10859 11.8247 2.05783 11.5117 2.05783 9.28674C2.05783 7.06176 2.05783 6.74874 2.10859 5.90274C2.11238 5.35374 2.21261 4.80967 2.40469 4.29535C2.55363 3.93826 2.78223 3.61995 3.07303 3.36475C3.33006 3.07387 3.64771 2.84285 4.00363 2.68795C4.51931 2.50187 5.06282 2.40461 5.61103 2.40031C6.45702 2.40031 6.77004 2.34955 8.99502 2.34955C11.22 2.34955 11.533 2.34955 12.379 2.40031C12.916 2.40647 13.4481 2.50373 13.9526 2.68795C14.337 2.83063 14.6821 3.0626 14.9593 3.36475C15.2365 3.62462 15.4532 3.94234 15.5938 4.29535C15.7818 4.8105 15.8792 5.35435 15.8814 5.90274C15.9237 6.74874 15.9322 7.06176 15.9322 9.28674C15.9322 11.5117 15.9237 11.8247 15.8814 12.6707ZM8.99502 4.94676C8.13702 4.94844 7.29876 5.20439 6.58617 5.68229C5.87358 6.16019 5.31863 6.83858 4.99145 7.63176C4.66426 8.42493 4.57952 9.29728 4.74793 10.1386C4.91635 10.9799 5.33035 11.7524 5.93765 12.3585C6.54494 12.9647 7.31826 13.3772 8.1599 13.5439C9.00154 13.7107 9.87373 13.6243 10.6663 13.2955C11.4588 12.9668 12.1361 12.4105 12.6126 11.697C13.0891 10.9835 13.3435 10.1447 13.3435 9.28674C13.3446 8.71578 13.2328 8.15023 13.0146 7.62262C12.7963 7.09501 12.4759 6.61576 12.0718 6.21242C11.6677 5.80908 11.1878 5.48962 10.6598 5.27241C10.1317 5.05521 9.56598 4.94453 8.99502 4.94676ZM8.99502 12.1039C8.43784 12.1039 7.89316 11.9387 7.42988 11.6291C6.9666 11.3196 6.60551 10.8796 6.39229 10.3648C6.17906 9.85005 6.12327 9.28361 6.23198 8.73713C6.34068 8.19066 6.60899 7.68868 7.00298 7.29469C7.39697 6.9007 7.89894 6.63239 8.44542 6.52369C8.9919 6.41499 9.55833 6.47078 10.0731 6.68401C10.5879 6.89723 11.0279 7.25832 11.3374 7.7216C11.647 8.18488 11.8122 8.72955 11.8122 9.28674C11.8122 9.65669 11.7393 10.023 11.5978 10.3648C11.4562 10.7066 11.2487 11.0172 10.9871 11.2788C10.7255 11.5404 10.4149 11.7479 10.0731 11.8895C9.73131 12.031 9.36498 12.1039 8.99502 12.1039Z" fill="white"/>
</svg>
