<svg width="17" height="17" viewBox="0 0 17 17" fill="none" xmlns="http://www.w3.org/2000/svg">
<path d="M8.20889 0.334351C6.63606 0.334351 5.09854 0.80075 3.79078 1.67457C2.48302 2.54839 1.46374 3.79038 0.861843 5.24349C0.259946 6.6966 0.102462 8.29556 0.409307 9.83817C0.716151 11.3808 1.47354 12.7978 2.5857 13.9099C3.69786 15.0221 5.11484 15.7795 6.65746 16.0863C8.20007 16.3932 9.79903 16.2357 11.2521 15.6338C12.7052 15.0319 13.9472 14.0126 14.8211 12.7048C15.6949 11.3971 16.1613 9.85957 16.1613 8.28673C16.1613 7.24241 15.9556 6.20832 15.5559 5.24349C15.1563 4.27866 14.5705 3.402 13.8321 2.66355C13.0936 1.9251 12.217 1.33933 11.2521 0.93969C10.2873 0.540045 9.25321 0.334351 8.20889 0.334351ZM8.20889 1.92483C9.84289 1.92418 11.4135 2.55699 12.5907 3.69026C11.3755 4.40295 10.0879 4.98411 8.74965 5.42388C8.08363 4.27621 7.32003 3.18802 6.46732 2.17135C7.0335 2.00833 7.61971 1.92535 8.20889 1.92483ZM4.94046 2.83935C5.77362 3.79245 6.52137 4.81695 7.17508 5.90102C5.61411 6.28862 4.01202 6.48621 2.40365 6.4895H2.11736C2.56842 4.96235 3.57578 3.65988 4.94046 2.83935ZM3.43746 12.5094C2.40266 11.3474 1.83591 9.8427 1.84698 8.28673C1.84698 8.20721 1.84698 8.12769 1.84698 8.05612H2.38774C4.27037 8.03928 6.14238 7.77186 7.95441 7.26088C8.20889 7.74597 8.44746 8.24697 8.67808 8.76388C7.43869 9.2008 6.28442 9.84924 5.26651 10.6804L5.02793 10.8713C4.46102 11.3804 3.92962 11.9277 3.43746 12.5094ZM8.20889 14.6486C6.94135 14.6515 5.70245 14.2717 4.65417 13.5592C5.04133 13.1151 5.45565 12.6955 5.89474 12.3027L6.14922 12.088C7.09012 11.2966 8.16831 10.6848 9.33017 10.2828C9.80838 11.5758 10.1807 12.9056 10.4435 14.259C9.72764 14.5204 8.97098 14.6523 8.20889 14.6486ZM11.8908 13.4637C11.6307 12.2602 11.2906 11.0753 10.8729 9.91697H11.1433C11.1747 9.90923 11.2074 9.90923 11.2387 9.91697H11.3262H11.4057H11.7875C12.6243 9.91937 13.4549 10.0618 14.2447 10.3384C13.8108 11.6032 12.9866 12.6975 11.8908 13.4637ZM11.7875 8.28673C11.6205 8.28673 11.4535 8.28673 11.2944 8.28673C11.1914 8.27376 11.0872 8.27376 10.9843 8.28673C10.7681 8.30001 10.553 8.32657 10.3401 8.36626H10.2606C10.03 7.83345 9.79141 7.31654 9.52898 6.77578C10.953 6.28676 12.3206 5.64693 13.6086 4.86721C14.2475 5.89256 14.5812 7.07865 14.5708 8.28673C14.5708 8.42192 14.5708 8.55712 14.5708 8.69231C13.6695 8.41415 12.7306 8.27733 11.7875 8.28673Z" fill="white"/>
</svg>
