<svg width="16" height="16" viewBox="0 0 16 16" fill="none" xmlns="http://www.w3.org/2000/svg">
<path d="M11.4261 9.78316C11.2765 9.7088 10.3041 9.26268 10.1545 9.18832C10.0049 9.11397 9.85532 9.11397 9.70572 9.26268C9.55612 9.41139 9.25693 9.85751 9.10733 10.0062C9.03254 10.1549 8.88294 10.1549 8.73334 10.0806C8.20975 9.85751 7.68617 9.56009 7.23738 9.18832C6.86338 8.81655 6.48939 8.37042 6.1902 7.92429C6.1154 7.77558 6.1902 7.62687 6.265 7.55251C6.33979 7.47816 6.41459 7.32945 6.56419 7.25509C6.63899 7.18074 6.71379 7.03203 6.71379 6.95767C6.78859 6.88332 6.78859 6.73461 6.71379 6.66025C6.63899 6.5859 6.265 5.69364 6.1154 5.32186C6.0406 4.80138 5.891 4.80138 5.74141 4.80138H5.36742C5.21782 4.80138 4.99342 4.95009 4.91863 5.02444C4.46984 5.47057 4.24544 5.99106 4.24544 6.5859C4.32024 7.25509 4.54463 7.92429 4.99342 8.51913C5.81621 9.70881 6.86338 10.6754 8.13496 11.2703C8.50895 11.419 8.80814 11.5677 9.18213 11.642C9.55612 11.7907 9.93012 11.7907 10.3789 11.7164C10.9025 11.642 11.3513 11.2703 11.6505 10.8241C11.8001 10.5267 11.8001 10.2293 11.7253 9.93187L11.4261 9.78316ZM13.296 3.01686C10.3789 0.117019 5.66661 0.117019 2.74947 3.01686C0.355927 5.39622 -0.0928631 9.03961 1.5527 11.9395L0.505524 15.7316L4.46984 14.6906C5.59181 15.2854 6.78859 15.5828 7.98536 15.5828C12.0993 15.5828 15.3904 12.3112 15.3904 8.22171C15.4652 6.28848 14.6424 4.42961 13.296 3.01686ZM11.2765 13.4266C10.3041 14.0214 9.18213 14.3932 7.98536 14.3932C6.86338 14.3932 5.81621 14.0957 4.84383 13.5753L4.61943 13.4266L2.30068 14.0214L2.89907 11.7907L2.74947 11.5677C0.954314 8.59348 1.85189 4.87574 4.76903 3.01686C7.68617 1.15799 11.4261 2.1246 13.2212 4.95009C15.0164 7.84993 14.1936 11.642 11.2765 13.4266Z" fill="#121212"/>
</svg>
