<svg width="15" height="14" viewBox="0 0 15 14" fill="none" xmlns="http://www.w3.org/2000/svg">
<path d="M0.204666 2.22102C0.204666 1.77665 0.360914 1.41005 0.673395 1.12123C0.985877 0.832387 1.39212 0.687973 1.89209 0.687973C2.38314 0.687973 2.78044 0.83016 3.084 1.11456C3.39648 1.40784 3.55273 1.78998 3.55273 2.26102C3.55273 2.68761 3.40096 3.04309 3.09739 3.32749C2.78491 3.62077 2.37421 3.76741 1.86531 3.76741H1.85191C1.36086 3.76741 0.963565 3.62077 0.660003 3.32749C0.356441 3.03421 0.204666 2.66538 0.204666 2.22102ZM0.378765 13.8855V4.98052H3.35185V13.8855H0.378765ZM4.99909 13.8855H7.97217V8.91313C7.97217 8.60207 8.00789 8.36211 8.07931 8.19326C8.2043 7.89109 8.39403 7.63558 8.64848 7.42674C8.90294 7.21788 9.22211 7.11346 9.60603 7.11346C10.606 7.11346 11.106 7.78444 11.106 9.12642V13.8855H14.079V8.77982C14.079 7.4645 13.7666 6.46691 13.1416 5.78704C12.5166 5.10716 11.6908 4.76722 10.664 4.76722C9.51228 4.76722 8.615 5.26047 7.97217 6.24695V6.27361H7.95878L7.97217 6.24695V4.98052H4.99909C5.01695 5.26491 5.02588 6.14918 5.02588 7.63336C5.02588 9.11753 5.01695 11.2016 4.99909 13.8855Z" fill="white"/>
</svg>
