<svg width="16" height="16" viewBox="0 0 16 16" fill="none" xmlns="http://www.w3.org/2000/svg">
<path d="M11.4261 9.78316C11.2765 9.7088 10.3041 9.26268 10.1545 9.18832C10.0049 9.11397 9.8553 9.11397 9.70571 9.26268C9.55611 9.41139 9.25692 9.85751 9.10732 10.0062C9.03252 10.1549 8.88292 10.1549 8.73333 10.0806C8.20974 9.85751 7.68615 9.56009 7.23736 9.18832C6.86337 8.81655 6.48938 8.37042 6.19018 7.92429C6.11539 7.77558 6.19018 7.62687 6.26498 7.55251C6.33978 7.47816 6.41458 7.32945 6.56418 7.25509C6.63897 7.18074 6.71377 7.03203 6.71377 6.95767C6.78857 6.88332 6.78857 6.73461 6.71377 6.66025C6.63897 6.5859 6.26498 5.69364 6.11538 5.32186C6.04059 4.80138 5.89099 4.80138 5.74139 4.80138H5.3674C5.2178 4.80138 4.99341 4.95009 4.91861 5.02444C4.46982 5.47057 4.24543 5.99106 4.24543 6.5859C4.32022 7.25509 4.54462 7.92429 4.99341 8.51913C5.81619 9.70881 6.86337 10.6754 8.13494 11.2703C8.50893 11.419 8.80813 11.5677 9.18212 11.642C9.55611 11.7907 9.9301 11.7907 10.3789 11.7164C10.9025 11.642 11.3513 11.2703 11.6505 10.8241C11.8001 10.5267 11.8001 10.2293 11.7253 9.93187L11.4261 9.78316ZM13.296 3.01686C10.3789 0.117019 5.66659 0.117019 2.74946 3.01686C0.355912 5.39622 -0.0928784 9.03961 1.55269 11.9395L0.505508 15.7316L4.46982 14.6906C5.5918 15.2854 6.78857 15.5828 7.98534 15.5828C12.0993 15.5828 15.3904 12.3112 15.3904 8.22171C15.4652 6.28848 14.6424 4.42961 13.296 3.01686ZM11.2765 13.4266C10.3041 14.0214 9.18212 14.3932 7.98534 14.3932C6.86337 14.3932 5.81619 14.0957 4.84381 13.5753L4.61942 13.4266L2.30067 14.0214L2.89906 11.7907L2.74946 11.5677C0.954298 8.59348 1.85188 4.87574 4.76901 3.01686C7.68615 1.15799 11.4261 2.1246 13.2212 4.95009C15.0164 7.84993 14.1936 11.642 11.2765 13.4266Z" fill="white"/>
</svg>
