<svg width="17" height="17" viewBox="0 0 17 17" fill="none" xmlns="http://www.w3.org/2000/svg">
<path d="M8.20887 0.334351C6.63604 0.334351 5.09853 0.80075 3.79076 1.67457C2.483 2.54839 1.46372 3.79038 0.861828 5.24349C0.259931 6.6966 0.102447 8.29556 0.409291 9.83817C0.716136 11.3808 1.47353 12.7978 2.58569 13.9099C3.69785 15.0221 5.11483 15.7795 6.65744 16.0863C8.20005 16.3932 9.79901 16.2357 11.2521 15.6338C12.7052 15.0319 13.9472 14.0126 14.821 12.7048C15.6949 11.3971 16.1613 9.85957 16.1613 8.28673C16.1613 7.24241 15.9556 6.20832 15.5559 5.24349C15.1563 4.27866 14.5705 3.402 13.8321 2.66355C13.0936 1.9251 12.2169 1.33933 11.2521 0.93969C10.2873 0.540045 9.2532 0.334351 8.20887 0.334351ZM8.20887 1.92483C9.84287 1.92418 11.4135 2.55699 12.5906 3.69026C11.3755 4.40295 10.0879 4.98411 8.74964 5.42388C8.08361 4.27621 7.32001 3.18802 6.4673 2.17135C7.03348 2.00833 7.61969 1.92535 8.20887 1.92483ZM4.94044 2.83935C5.7736 3.79245 6.52135 4.81695 7.17506 5.90102C5.61409 6.28862 4.012 6.48621 2.40363 6.4895H2.11735C2.56841 4.96235 3.57576 3.65988 4.94044 2.83935ZM3.43744 12.5094C2.40264 11.3474 1.8359 9.8427 1.84697 8.28673C1.84697 8.20721 1.84697 8.12769 1.84697 8.05612H2.38773C4.27036 8.03928 6.14236 7.77186 7.9544 7.26088C8.20887 7.74597 8.44744 8.24697 8.67806 8.76388C7.43868 9.2008 6.2844 9.84924 5.26649 10.6804L5.02792 10.8713C4.46101 11.3804 3.92961 11.9277 3.43744 12.5094ZM8.20887 14.6486C6.94133 14.6515 5.70244 14.2717 4.65416 13.5592C5.04131 13.1151 5.45563 12.6955 5.89473 12.3027L6.14921 12.088C7.0901 11.2966 8.16829 10.6848 9.33016 10.2828C9.80836 11.5758 10.1807 12.9056 10.4435 14.259C9.72762 14.5204 8.97096 14.6523 8.20887 14.6486ZM11.8908 13.4637C11.6306 12.2602 11.2906 11.0753 10.8729 9.91697H11.1433C11.1746 9.90923 11.2074 9.90923 11.2387 9.91697H11.3262H11.4057H11.7874C12.6243 9.91937 13.4549 10.0618 14.2447 10.3384C13.8108 11.6032 12.9866 12.6975 11.8908 13.4637ZM11.7874 8.28673C11.6204 8.28673 11.4534 8.28673 11.2944 8.28673C11.1914 8.27376 11.0872 8.27376 10.9843 8.28673C10.7681 8.30001 10.553 8.32657 10.3401 8.36626H10.2606C10.03 7.83345 9.7914 7.31654 9.52897 6.77578C10.9529 6.28676 12.3206 5.64693 13.6085 4.86721C14.2475 5.89256 14.5812 7.07865 14.5708 8.28673C14.5708 8.42192 14.5708 8.55712 14.5708 8.69231C13.6695 8.41415 12.7306 8.27733 11.7874 8.28673Z" fill="#121212"/>
</svg>
