<svg width="15" height="14" viewBox="0 0 15 14" fill="none" xmlns="http://www.w3.org/2000/svg">
<path d="M0.204651 2.22102C0.204651 1.77665 0.360898 1.41005 0.67338 1.12123C0.985861 0.832387 1.3921 0.687973 1.89208 0.687973C2.38313 0.687973 2.78042 0.83016 3.08399 1.11456C3.39647 1.40784 3.55271 1.78998 3.55271 2.26102C3.55271 2.68761 3.40094 3.04309 3.09738 3.32749C2.7849 3.62077 2.3742 3.76741 1.86529 3.76741H1.8519C1.36084 3.76741 0.96355 3.62077 0.659988 3.32749C0.356425 3.03421 0.204651 2.66538 0.204651 2.22102ZM0.37875 13.8855V4.98052H3.35183V13.8855H0.37875ZM4.99908 13.8855H7.97216V8.91313C7.97216 8.60207 8.00788 8.36211 8.0793 8.19326C8.20429 7.89109 8.39402 7.63558 8.64847 7.42674C8.90292 7.21788 9.2221 7.11346 9.60601 7.11346C10.606 7.11346 11.1059 7.78444 11.1059 9.12642V13.8855H14.079V8.77982C14.079 7.4645 13.7665 6.46691 13.1416 5.78704C12.5166 5.10716 11.6907 4.76722 10.664 4.76722C9.51227 4.76722 8.61499 5.26047 7.97216 6.24695V6.27361H7.95877L7.97216 6.24695V4.98052H4.99908C5.01693 5.26491 5.02586 6.14918 5.02586 7.63336C5.02586 9.11753 5.01693 11.2016 4.99908 13.8855Z" fill="#121212"/>
</svg>
