<svg width="17" height="11" viewBox="0 0 17 11" fill="none" xmlns="http://www.w3.org/2000/svg">
<path d="M14.643 0.877583H10.7858V1.97291H14.6582L14.643 0.877583ZM13.829 8.41282C13.5363 8.61079 13.1908 8.71122 12.8399 8.70025C12.6077 8.72497 12.373 8.70047 12.1504 8.62829C11.9279 8.55611 11.7223 8.4378 11.5466 8.28076C11.2218 7.90468 11.0527 7.41448 11.0749 6.91354H16.1113C16.1476 6.39194 16.104 5.86775 15.982 5.35988C15.8639 4.87671 15.6574 4.42072 15.3733 4.01597C15.0874 3.62336 14.718 3.302 14.293 3.07601C13.8202 2.83794 13.2986 2.71812 12.7715 2.72643C12.2757 2.72273 11.7842 2.82046 11.326 3.01386C10.9064 3.19447 10.5263 3.45854 10.2076 3.79069C9.88994 4.12948 9.64392 4.53141 9.48491 4.97147C9.31426 5.44654 9.22921 5.94922 9.23385 6.45521C9.22602 6.96839 9.30848 7.47883 9.4773 7.96226C9.62069 8.40003 9.84831 8.80412 10.1468 9.15081C10.4556 9.49118 10.8351 9.75662 11.2575 9.92764C11.7285 10.1109 12.2295 10.2005 12.7334 10.1918C13.4405 10.2143 14.1386 10.0253 14.7419 9.64798C15.3512 9.20586 15.7899 8.56006 15.982 7.82243H14.3006C14.2106 8.06646 14.045 8.27377 13.829 8.41282ZM11.2195 5.21229C11.2787 5.01861 11.377 4.83974 11.508 4.68722C11.639 4.53469 11.7999 4.41188 11.9803 4.3267C12.2191 4.21692 12.4792 4.16381 12.741 4.17134C12.9302 4.15484 13.1206 4.18032 13.2992 4.24602C13.4778 4.31173 13.6403 4.4161 13.7757 4.55198C14.0342 4.87509 14.2001 5.26495 14.255 5.67838H11.0978C11.1101 5.52052 11.1381 5.36435 11.1814 5.21229H11.2195ZM7.19496 4.83941C7.58217 4.67477 7.91862 4.40637 8.16876 4.06258C8.39868 3.69747 8.51291 3.26892 8.49589 2.83519C8.51081 2.43966 8.43527 2.04602 8.27527 1.68548C8.14085 1.37314 7.92507 1.10444 7.65143 0.908656C7.36131 0.705106 7.03185 0.567367 6.68524 0.504705C6.27504 0.416856 5.85665 0.375177 5.43756 0.380413H0.895706V10.1529H5.53646C5.95998 10.1532 6.38181 10.0984 6.79175 9.98978C7.18031 9.88714 7.54843 9.71628 7.87966 9.48484C8.20051 9.25779 8.46177 8.95367 8.64044 8.59926C8.83818 8.20291 8.93498 7.7621 8.92193 7.31749C8.93634 6.76652 8.78499 6.22427 8.48829 5.76383C8.16921 5.30079 7.69595 4.97218 7.15692 4.83941H7.19496ZM3.00307 2.05059H4.97348C5.15451 2.05037 5.33522 2.06596 5.51364 2.0972C5.67793 2.12206 5.8357 2.18017 5.97771 2.26811C6.11492 2.34735 6.22609 2.46628 6.29724 2.60991C6.38535 2.78215 6.42735 2.9751 6.41897 3.16923C6.43314 3.33643 6.4081 3.50468 6.34592 3.66003C6.28374 3.81538 6.18621 3.95338 6.0614 4.06258C5.78913 4.2537 5.46334 4.34914 5.13325 4.33447H3.00307V2.05059ZM6.68524 7.8302C6.60708 7.98852 6.48888 8.12262 6.34289 8.21861C6.19096 8.3151 6.02356 8.38347 5.84838 8.42059C5.65367 8.46509 5.45448 8.48595 5.25497 8.48273H2.97263V5.80268H5.25497C5.64663 5.78516 6.03342 5.89684 6.3581 6.12118C6.50479 6.25559 6.61842 6.42339 6.68979 6.61098C6.76116 6.79857 6.78827 7.00069 6.76892 7.20097C6.78949 7.41451 6.76083 7.63 6.68524 7.8302Z" fill="#121212"/>
</svg>
